<?xml version="1.0" standalone="no"?>
<!DOCTYPE svg PUBLIC "-//W3C//DTD SVG 20010904//EN"
 "http://www.w3.org/TR/2001/REC-SVG-20010904/DTD/svg10.dtd">
<svg version="1.0" xmlns="http://www.w3.org/2000/svg"
 width="2048.000000pt" height="2048.000000pt" viewBox="0 0 2048.000000 2048.000000"
 preserveAspectRatio="xMidYMid meet">

<g transform="translate(0.000000,2048.000000) scale(0.100000,-0.100000)"
fill="#000000" stroke="none">
<path d="M10439 15206 c-2 -3 -88 -10 -189 -16 -275 -16 -584 -60 -850 -122
-981 -227 -1828 -705 -2530 -1425 -179 -183 -240 -250 -240 -262 0 -12 -6 -13
225 20 83 12 155 24 162 28 6 3 54 47 106 97 497 476 973 790 1592 1049 323
135 757 252 1125 304 308 43 350 46 720 46 321 0 387 -3 545 -24 190 -24 443
-68 585 -102 117 -29 386 -107 429 -125 20 -9 57 -22 83 -30 143 -44 476 -192
653 -291 398 -222 680 -422 960 -679 132 -121 337 -330 416 -424 35 -41 82
-94 104 -117 l40 -43 112 58 c62 31 113 62 113 69 0 30 -254 315 -466 524
-680 666 -1490 1107 -2449 1332 -189 45 -489 91 -690 106 -357 27 -415 31
-481 31 -39 0 -73 -2 -75 -4z"/>
<path d="M11285 13924 c-36 -23 -104 -57 -285 -141 -53 -25 -167 -75 -285
-124 -66 -28 -429 -151 -565 -192 -101 -31 -301 -83 -386 -102 -34 -7 -90 -20
-125 -29 -263 -62 -377 -83 -839 -150 -275 -41 -577 -66 -1130 -94 -281 -14
-1163 -5 -1340 14 -30 3 -127 -1 -215 -9 -88 -9 -203 -19 -255 -22 -201 -12
-342 -51 -498 -137 -130 -71 -259 -197 -319 -313 -59 -114 -106 -321 -101
-443 1 -25 -4 -47 -10 -51 -7 -4 -69 -8 -140 -9 -246 -4 -576 -50 -742 -104
-232 -75 -361 -150 -470 -273 -92 -104 -150 -263 -150 -409 0 -78 11 -83 110
-43 47 19 451 73 615 82 122 7 478 7 518 0 18 -3 77 -10 132 -15 193 -19 348
-46 555 -96 162 -40 405 -118 492 -158 31 -14 63 -26 72 -26 21 0 414 -201
503 -258 142 -90 378 -255 473 -330 110 -87 345 -315 466 -453 221 -251 441
-580 584 -874 180 -371 288 -713 354 -1125 36 -218 59 -580 38 -580 -16 0 -43
36 -276 368 -28 40 -79 112 -114 160 -105 146 -143 199 -293 411 -79 113 -164
233 -189 268 -132 184 -281 394 -324 457 -73 104 -447 631 -499 701 -24 33
-64 89 -89 125 -25 36 -59 85 -77 110 -17 25 -52 75 -77 111 -24 37 -50 72
-57 77 -9 8 -94 -16 -312 -88 -165 -54 -311 -100 -325 -102 l-25 -3 -3 150
c-2 140 11 308 40 510 6 44 11 105 12 135 l1 54 -114 19 c-62 10 -119 16 -126
14 -28 -12 -100 -706 -94 -910 1 -31 -1 -61 -5 -65 -4 -4 -35 -16 -69 -28
l-62 -21 0 -529 c0 -609 15 -2907 20 -3004 2 -36 7 -64 12 -64 8 2 286 90 682
217 128 42 238 80 243 85 5 5 5 83 0 193 -9 200 -5 227 38 240 44 13 619 199
789 255 90 30 174 54 187 54 18 0 44 -31 134 -165 71 -106 117 -165 128 -165
9 0 161 47 337 104 514 167 494 161 506 149 13 -13 0 -179 -32 -398 -11 -77
-24 -167 -29 -200 -12 -88 -94 -414 -134 -530 -97 -283 -202 -513 -343 -749
-147 -245 -317 -474 -484 -650 -54 -57 -99 -107 -99 -110 0 -9 33 7 80 39 25
17 63 40 85 50 35 17 178 104 314 190 86 55 241 166 394 283 530 404 1011 912
1401 1479 174 253 266 456 316 698 61 294 63 316 64 600 1 275 -4 331 -44 520
-40 182 -100 378 -150 490 -154 341 -282 542 -478 747 -41 43 -48 68 -18 68
51 0 356 -273 517 -462 129 -151 180 -229 301 -459 137 -259 201 -468 253
-827 9 -63 16 -128 15 -145 -6 -99 10 -84 45 43 45 169 70 293 92 470 25 198
24 640 0 820 -22 155 -50 302 -77 406 -40 148 -141 446 -159 469 -5 5 -12 21
-16 35 -20 69 -194 381 -297 534 -96 141 -187 251 -332 402 -82 86 -97 114
-60 114 27 0 326 -199 455 -303 115 -92 329 -309 431 -437 165 -207 225 -322
316 -600 74 -228 253 -785 382 -1190 125 -395 142 -441 157 -447 8 -3 49 6 91
20 42 14 205 66 362 117 157 50 313 100 347 111 34 11 66 25 71 32 7 8 -7 64
-44 177 -98 296 -146 443 -174 538 l-29 94 63 191 c35 105 70 196 78 201 15 9
37 -9 542 -459 99 -88 198 -176 220 -195 23 -19 70 -61 106 -95 36 -33 91 -82
122 -108 l57 -49 48 15 c26 9 188 61 358 116 171 54 379 121 463 147 84 26
151 51 150 55 -3 7 -345 281 -573 460 -60 46 -136 107 -169 134 -34 28 -124
100 -201 160 -338 264 -824 656 -833 671 -10 19 67 256 393 1204 210 611 199
579 194 584 -2 3 -79 -19 -169 -49 -91 -30 -250 -81 -355 -115 -443 -142 -478
-155 -491 -176 -8 -11 -34 -92 -58 -180 -36 -132 -136 -481 -293 -1029 -14
-49 -30 -109 -35 -133 -7 -32 -14 -42 -26 -40 -20 4 -38 56 -313 918 -67 209
-67 210 -94 210 -12 0 -147 -41 -300 -91 -153 -50 -292 -93 -310 -96 -30 -5
-34 -2 -64 48 -65 109 -77 126 -155 229 -44 58 -83 107 -86 110 -4 3 -26 30
-49 60 -109 140 -397 404 -588 539 -33 22 -44 59 -20 65 187 52 416 155 601
271 71 44 141 87 155 95 50 29 136 89 221 155 47 36 110 84 140 107 123 92
458 379 600 514 52 49 118 111 145 137 54 51 44 62 -20 21z m-4519 -1318 c18
-14 17 -17 -26 -61 -155 -160 -399 -267 -643 -282 -111 -7 -266 12 -274 34 -8
20 33 96 74 137 129 129 326 182 679 185 134 1 174 -2 190 -13z m-565 -3618
c53 -84 162 -251 370 -568 208 -317 241 -369 237 -385 -2 -10 -30 -25 -73 -39
-360 -119 -548 -177 -555 -170 -7 7 -60 1078 -60 1207 0 58 22 46 81 -45z"/>
<path d="M14825 12943 c-160 -13 -313 -47 -545 -122 -69 -22 -161 -51 -205
-66 -161 -51 -236 -75 -530 -170 -165 -53 -314 -101 -332 -106 -17 -6 -36 -15
-41 -22 -7 -8 -8 -144 -5 -395 7 -437 -6 -397 114 -357 98 34 119 31 135 -20
12 -36 128 -395 299 -925 35 -107 100 -310 145 -450 45 -140 95 -293 110 -340
38 -115 215 -674 231 -727 8 -28 18 -43 28 -43 9 0 104 29 211 64 107 36 323
106 480 156 687 220 774 254 973 387 119 79 281 237 355 345 115 169 203 384
253 618 19 87 22 138 23 300 1 198 -8 283 -46 450 -91 402 -279 747 -544 1000
-107 102 -186 160 -326 240 -249 143 -516 205 -783 183z m-14 -868 c73 -19
223 -92 289 -140 155 -115 299 -325 363 -530 46 -148 52 -187 52 -365 0 -151
-3 -187 -23 -260 -59 -217 -182 -382 -360 -481 -60 -33 -205 -89 -231 -89 -18
0 -34 43 -126 328 -59 180 -135 415 -170 522 -159 486 -305 949 -305 963 0 12
74 39 160 58 101 22 250 20 351 -6z"/>
<path d="M15356 9229 c-3 -13 -17 -82 -31 -154 -42 -213 -132 -528 -210 -730
-326 -845 -831 -1539 -1530 -2101 -209 -168 -532 -380 -745 -488 -63 -32 -119
-62 -125 -66 -5 -4 -57 -29 -115 -55 -58 -26 -124 -56 -148 -66 -62 -28 -178
-73 -238 -93 l-52 -17 -4 -142 c-3 -78 -4 -143 -3 -145 5 -6 255 87 415 155
477 203 935 489 1350 842 81 69 281 264 382 371 263 281 474 560 668 885 89
150 249 458 292 565 15 36 45 109 67 163 48 116 130 356 172 505 64 230 127
528 116 556 -3 8 -34 15 -87 20 -45 4 -101 9 -125 13 -40 5 -44 4 -49 -18z"/>
<path d="M6880 6789 c-33 -13 -155 -46 -202 -54 -21 -3 -38 -10 -38 -14 0 -5
64 -77 143 -162 134 -143 345 -344 497 -471 120 -100 363 -278 379 -278 5 0
26 28 47 63 21 34 50 78 66 98 15 20 28 42 28 48 0 6 -26 29 -57 52 -301 221
-414 318 -665 571 -86 87 -160 158 -165 157 -4 0 -19 -5 -33 -10z"/>
<path d="M9158 5847 c-43 -57 -78 -107 -78 -110 0 -13 65 -24 81 -14 25 15
107 -1 119 -23 9 -17 75 -39 85 -28 9 8 -27 243 -38 255 -7 7 -30 15 -52 18
l-40 6 -77 -104z m112 -30 c0 -40 -5 -46 -31 -40 -23 6 -24 21 -3 51 22 31 34
27 34 -11z"/>
<path d="M9410 5890 c-11 -21 -10 -22 56 -44 7 -3 3 -34 -12 -93 -12 -48 -18
-92 -14 -96 4 -4 23 -10 42 -14 l36 -5 17 78 c27 126 21 117 73 110 25 -3 48
-8 50 -11 3 -3 -3 -48 -13 -100 -10 -52 -17 -96 -14 -99 8 -8 229 -37 239 -31
5 3 10 15 10 25 0 20 -3 21 -109 38 -46 7 -57 18 -43 39 6 10 22 10 67 3 60
-10 74 -4 75 28 0 15 -9 18 -72 27 -42 5 -48 9 -48 31 0 24 1 24 69 18 64 -6
70 -5 81 16 6 12 10 23 8 24 -2 2 -73 13 -158 25 -85 13 -182 29 -215 37 -84
19 -112 18 -125 -6z"/>
<path d="M9942 5818 c-5 -7 -10 -31 -10 -53 -1 -22 -6 -64 -12 -94 -18 -94
-16 -101 30 -101 35 0 40 3 45 28 20 94 19 93 53 21 28 -63 32 -67 69 -71 21
-3 41 -3 44 1 10 10 42 239 34 250 -3 6 -21 11 -40 11 -32 0 -33 -1 -40 -50
-4 -27 -11 -53 -16 -56 -5 -3 -21 22 -36 55 -26 59 -41 71 -89 71 -12 0 -26
-6 -32 -12z"/>
<path d="M10240 5780 c-6 -12 -9 -27 -7 -34 3 -7 -1 -55 -8 -107 -7 -52 -11
-97 -9 -100 3 -5 152 -20 229 -24 6 0 11 12 13 26 3 24 -1 27 -44 33 -26 3
-60 6 -76 6 -25 0 -29 4 -26 23 3 21 7 22 66 18 57 -3 62 -1 62 18 0 12 0 24
0 29 0 4 -26 9 -57 12 -51 4 -58 8 -61 28 -4 23 -2 24 63 20 56 -2 69 0 81 16
20 27 11 33 -58 40 -35 4 -84 9 -110 12 -40 5 -48 3 -58 -16z"/>
<path d="M10561 5753 c-99 -49 -95 -197 5 -239 49 -20 123 -18 162 6 95 58 93
195 -3 236 -46 19 -122 17 -164 -3z m124 -58 c65 -64 -19 -179 -87 -118 -27
25 -24 88 7 118 13 14 31 25 40 25 9 0 27 -11 40 -25z"/>
<path d="M9040 5601 c-15 -28 -14 -29 25 -37 19 -3 35 -9 35 -13 0 -3 -10 -45
-22 -93 -24 -95 -23 -102 29 -113 35 -7 34 -10 73 143 l11 43 47 -6 c40 -6 49
-4 59 14 7 11 9 22 5 24 -7 4 -235 57 -246 57 -3 0 -10 -9 -16 -19z"/>
<path d="M9278 5444 c-42 -59 -75 -111 -72 -116 9 -14 74 -21 88 -9 21 17 94
2 119 -24 23 -24 82 -42 90 -28 7 13 -37 251 -48 262 -5 5 -30 12 -55 16 l-45
6 -77 -107z m122 -34 c0 -36 -2 -40 -25 -40 -29 0 -33 24 -9 58 23 33 34 27
34 -18z"/>
<path d="M9577 5489 c-9 -12 -13 -28 -10 -35 3 -8 -3 -54 -13 -104 -10 -49
-16 -91 -14 -94 11 -10 245 -45 253 -37 5 5 7 17 5 27 -2 14 -20 21 -81 32
-66 12 -77 17 -77 34 0 18 6 19 73 16 67 -3 72 -2 75 19 3 19 -3 22 -51 28
-65 8 -80 17 -75 41 4 21 13 22 95 10 47 -7 53 -6 63 14 6 12 10 24 8 26 -3 2
-45 11 -94 19 -49 8 -101 18 -116 21 -19 4 -30 0 -41 -17z"/>
<path d="M9860 5440 c-6 -11 -8 -25 -5 -30 3 -6 -1 -49 -10 -96 -9 -48 -14
-93 -11 -100 3 -9 21 -14 46 -14 35 0 40 3 40 23 0 24 17 47 35 47 6 0 21 -20
33 -44 19 -41 25 -45 67 -52 25 -3 48 -4 50 -2 3 3 -16 37 -42 78 l-47 73 59
52 c48 42 55 53 41 58 -40 16 -76 7 -115 -28 -21 -19 -42 -35 -46 -35 -4 0 -5
15 -2 34 7 41 -7 56 -50 56 -22 0 -36 -6 -43 -20z"/>
<path d="M10157 5423 c-6 -10 11 -255 19 -262 3 -3 28 -5 57 -6 l52 0 24 63
c14 34 28 62 32 62 5 0 11 -27 15 -61 8 -73 22 -89 79 -89 l44 0 40 127 c22
70 39 128 38 129 -1 1 -19 4 -41 6 -43 3 -50 -3 -66 -69 -6 -24 -15 -43 -19
-43 -5 0 -12 27 -16 59 -7 64 -15 71 -82 71 -29 0 -33 -4 -49 -52 -25 -78 -28
-79 -35 -15 -4 32 -10 62 -15 67 -14 12 -71 22 -77 13z"/>
<path d="M10657 5376 c-49 -18 -67 -34 -84 -73 -30 -73 -6 -140 62 -173 79
-38 191 -16 232 46 23 36 21 108 -4 142 -43 58 -135 84 -206 58z m110 -68 c29
-27 30 -76 2 -112 -57 -72 -148 8 -105 92 24 47 65 55 103 20z"/>
<path d="M11585 5367 c-24 -13 -47 -37 -58 -60 -18 -35 -37 -42 -37 -12 0 7
-16 27 -35 44 -35 30 -39 31 -130 31 -51 0 -96 -3 -98 -7 -2 -5 -2 -65 1 -135
l4 -128 74 0 c40 0 85 5 101 11 35 13 72 47 84 77 9 24 29 30 29 9 0 -15 45
-59 77 -76 35 -18 112 -13 161 10 103 50 103 192 0 245 -42 22 -126 17 -173
-9z m139 -59 c9 -12 16 -38 16 -58 0 -50 -24 -80 -62 -80 -45 0 -68 25 -68 74
0 57 22 86 65 86 24 0 39 -7 49 -22z m-324 -39 c21 -49 -15 -109 -64 -109 -13
0 -16 13 -16 73 0 41 3 76 6 80 13 13 63 -16 74 -44z"/>
<path d="M10910 5350 c-6 -11 -7 -26 -3 -33 4 -6 8 -57 8 -112 l0 -100 34 -3
c42 -4 51 8 51 71 0 28 4 47 10 45 6 -2 25 -28 43 -58 32 -52 35 -55 79 -58
l45 -3 6 127 c3 70 4 131 1 136 -3 4 -23 8 -45 8 l-39 0 0 -55 c0 -30 -4 -55
-10 -55 -5 0 -25 25 -45 55 -34 53 -36 55 -80 55 -34 0 -47 -5 -55 -20z"/>
<path d="M8941 5257 c-19 -19 -12 -35 20 -42 17 -4 33 -13 35 -20 3 -7 -4 -44
-15 -83 -30 -98 -28 -108 15 -117 20 -3 41 -2 46 3 5 5 19 47 31 93 24 92 25
93 103 68 l32 -10 -19 -72 c-19 -72 -24 -127 -13 -127 4 0 83 -16 177 -36 138
-30 174 -35 189 -25 26 16 104 4 126 -19 18 -19 75 -35 90 -26 8 5 -43 254
-53 265 -7 6 -97 21 -104 17 -4 -3 -38 -50 -76 -106 -75 -110 -85 -121 -85
-92 0 23 -4 25 -94 43 -65 12 -89 30 -70 49 6 6 34 4 69 -5 43 -10 63 -10 73
-3 26 22 7 41 -57 57 -65 16 -77 26 -62 49 6 10 20 10 75 -1 59 -12 70 -12 82
1 8 8 13 19 11 25 -1 5 -91 30 -197 53 -107 24 -223 50 -257 58 -44 10 -64 11
-72 3z m709 -273 c0 -29 -3 -34 -24 -34 -35 0 -38 11 -15 49 23 38 39 33 39
-15z"/>
<path d="M9827 5067 c-10 -15 -12 -28 -6 -34 5 -5 3 -36 -6 -78 -23 -107 -21
-121 16 -129 54 -10 57 -8 65 39 8 59 20 57 29 -5 6 -46 9 -50 38 -55 80 -12
80 -12 105 33 13 23 27 42 31 42 4 0 7 -21 7 -47 -1 -47 -1 -48 33 -51 18 -2
37 0 42 5 10 10 43 243 36 250 -3 2 -31 5 -63 6 l-58 2 -45 -79 c-50 -89 -51
-88 -72 29 -12 72 -19 79 -90 89 -41 6 -48 4 -62 -17z"/>
</g>
</svg>
